<svg width="16" height="16" viewBox="0 0 16 16" fill="none" xmlns="http://www.w3.org/2000/svg">
<g clip-path="url(#clip0_244_2047)">
<path d="M8.00001 0.0283203C6.23597 0.030261 4.54473 0.731837 3.2973 1.97914C2.04987 3.22644 1.34813 4.91761 1.34601 6.68165C1.34601 8.39499 2.67267 11.0763 5.28934 14.651C5.60085 15.0777 6.00871 15.4249 6.47974 15.6643C6.95077 15.9036 7.47166 16.0283 8.00001 16.0283C8.52836 16.0283 9.04924 15.9036 9.52027 15.6643C9.9913 15.4249 10.3992 15.0777 10.7107 14.651C13.3273 11.0763 14.654 8.39499 14.654 6.68165C14.6519 4.91761 13.9501 3.22644 12.7027 1.97914C11.4553 0.731837 9.76405 0.030261 8.00001 0.0283203ZM8.00001 9.33365C7.47259 9.33365 6.95702 9.17726 6.51849 8.88424C6.07996 8.59122 5.73816 8.17475 5.53633 7.68748C5.3345 7.20021 5.28169 6.66403 5.38458 6.14675C5.48747 5.62946 5.74145 5.15431 6.11439 4.78137C6.48733 4.40843 6.96248 4.15445 7.47977 4.05156C7.99705 3.94867 8.53323 4.00147 9.0205 4.20331C9.50777 4.40514 9.92424 4.74693 10.2173 5.18547C10.5103 5.624 10.6667 6.13957 10.6667 6.66699C10.6667 7.37423 10.3857 8.05251 9.88563 8.5526C9.38553 9.0527 8.70725 9.33365 8.00001 9.33365Z" fill="#798705"/>
</g>
<defs>
<clipPath id="clip0_244_2047">
<rect width="16" height="16" fill="white"/>
</clipPath>
</defs>
</svg>
