<svg width="14" height="14" viewBox="0 0 14 14" fill="none" xmlns="http://www.w3.org/2000/svg">
<path d="M5.25 10.4294V3.9124C5.25002 3.79705 5.28425 3.68429 5.34835 3.58838C5.41245 3.49248 5.50354 3.41773 5.61012 3.37359C5.71669 3.32945 5.83396 3.3179 5.9471 3.3404C6.06024 3.36289 6.16417 3.41843 6.24575 3.49999L9.50424 6.75849C9.6136 6.86788 9.67503 7.01622 9.67503 7.1709C9.67503 7.32558 9.6136 7.47393 9.50424 7.58332L6.24575 10.8418C6.16417 10.9234 6.06024 10.9789 5.9471 11.0014C5.83396 11.0239 5.71669 11.0124 5.61012 10.9682C5.50354 10.9241 5.41245 10.8493 5.34835 10.7534C5.28425 10.6575 5.25002 10.5448 5.25 10.4294Z" fill="#9D9E9F"/>
</svg>
