<svg width="16" height="16" viewBox="0 0 16 16" fill="none" xmlns="http://www.w3.org/2000/svg">
<g clip-path="url(#clip0_382_1712)">
<path d="M15.3334 3.33333H13.6094L15.1381 1.80467C15.2595 1.67893 15.3267 1.51053 15.3252 1.33573C15.3237 1.16093 15.2535 0.993726 15.1299 0.870121C15.0063 0.746516 14.8391 0.676403 14.6643 0.674884C14.4895 0.673365 14.3211 0.740561 14.1954 0.862L12.6667 2.39067V0.666667C12.6667 0.489856 12.5965 0.320286 12.4715 0.195262C12.3464 0.0702379 12.1769 0 12.0001 0C11.8233 0 11.6537 0.0702379 11.5287 0.195262C11.4036 0.320286 11.3334 0.489856 11.3334 0.666667V3.63733C10.7877 3.05641 10.1436 2.57657 9.43073 2.22C8.93562 2.00138 8.38298 1.94915 7.85568 2.07115C7.32838 2.19315 6.85484 2.4828 6.50606 2.89667L8.4714 4.862C8.59284 4.98774 8.66003 5.15614 8.65851 5.33093C8.657 5.50573 8.58688 5.67294 8.46328 5.79655C8.33967 5.92015 8.17246 5.99026 7.99767 5.99178C7.82287 5.9933 7.65447 5.92611 7.52873 5.80467L5.68073 3.95733C4.92273 5.07 3.90673 6.8 2.8894 8.61333L4.4714 10.1953C4.59284 10.3211 4.66003 10.4895 4.65851 10.6643C4.657 10.8391 4.58688 11.0063 4.46328 11.1299C4.33967 11.2535 4.17246 11.3236 3.99767 11.3251C3.82287 11.3266 3.65447 11.2594 3.52873 11.138L2.21473 9.824C1.47673 11.1613 0.770732 12.4747 0.200065 13.546C0.0380579 13.8613 -0.0196752 14.2199 0.0351833 14.5701C0.0900418 14.9203 0.25466 15.2441 0.50532 15.4947C0.75598 15.7454 1.07974 15.91 1.42996 15.9649C1.78017 16.0197 2.13876 15.962 2.45406 15.8C4.3374 14.8 6.96207 13.378 9.1574 12.1L7.52873 10.4713C7.40729 10.3456 7.3401 10.1772 7.34162 10.0024C7.34313 9.8276 7.41325 9.66039 7.53685 9.53679C7.66046 9.41318 7.82767 9.34307 8.00246 9.34155C8.17726 9.34003 8.34566 9.40723 8.4714 9.52867L10.3414 11.4C11.3106 10.8588 12.2279 10.2292 13.0814 9.51933C13.5031 9.17117 13.7996 8.69482 13.9259 8.16271C14.0521 7.6306 14.0011 7.07183 13.7807 6.57133C13.4238 5.85795 12.9438 5.21317 12.3627 4.66667H15.3334C15.5102 4.66667 15.6798 4.59643 15.8048 4.4714C15.9298 4.34638 16.0001 4.17681 16.0001 4C16.0001 3.82319 15.9298 3.65362 15.8048 3.5286C15.6798 3.40357 15.5102 3.33333 15.3334 3.33333Z" fill="#798705"/>
</g>
<defs>
<clipPath id="clip0_382_1712">
<rect width="16" height="16" fill="white"/>
</clipPath>
</defs>
</svg>
