<svg width="16" height="16" viewBox="0 0 16 16" fill="none" xmlns="http://www.w3.org/2000/svg">
<path d="M6.82131 6.82064C7.42607 6.21593 8.24011 5.86679 9.09507 5.84545C9.95002 5.82411 10.7805 6.13219 11.4146 6.70598L11.5353 6.82064L13.4206 8.70664C14.0347 9.32175 14.3842 10.1524 14.3946 11.0214C14.4051 11.8905 14.0757 12.7293 13.4767 13.359C12.8776 13.9887 12.0563 14.3596 11.1878 14.3925C10.3193 14.4254 9.47231 14.1179 8.82731 13.5353L8.70731 13.4206L7.29265 12.006C7.17308 11.886 7.10366 11.725 7.09849 11.5557C7.09332 11.3864 7.15279 11.2215 7.26481 11.0945C7.37683 10.9674 7.53301 10.8878 7.70163 10.8717C7.87024 10.8556 8.03865 10.9044 8.17265 11.008L8.23531 11.0633L9.64998 12.478C10.0167 12.8468 10.5127 13.0583 11.0327 13.0676C11.5528 13.0768 12.056 12.8831 12.4356 12.5275C12.8152 12.1719 13.0413 11.6825 13.066 11.1629C13.0908 10.6434 12.9121 10.1347 12.568 9.74464L12.478 9.64931L10.5926 7.76397C10.4069 7.57822 10.1864 7.43087 9.94376 7.33034C9.70108 7.22981 9.44098 7.17807 9.17831 7.17807C8.91564 7.17807 8.65554 7.22981 8.41287 7.33034C8.17019 7.43087 7.9497 7.57822 7.76398 7.76397C7.63889 7.88898 7.46926 7.95917 7.29241 7.95911C7.11556 7.95905 6.94598 7.88874 6.82098 7.76364C6.69597 7.63855 6.62578 7.46892 6.62584 7.29207C6.62591 7.11523 6.69622 6.94565 6.82131 6.82064ZM2.57865 2.57797C3.1834 1.97326 3.99745 1.62413 4.8524 1.60278C5.70735 1.58144 6.53781 1.88952 7.17198 2.46331L7.29265 2.57797L8.70665 3.99331C8.82621 4.11328 8.89563 4.27426 8.9008 4.44356C8.90597 4.61286 8.8465 4.77778 8.73448 4.90483C8.62246 5.03187 8.46628 5.11151 8.29766 5.12757C8.12905 5.14364 7.96064 5.09492 7.82665 4.99131L7.76398 4.93597L6.34998 3.52197C5.98263 3.15701 5.48804 2.94876 4.97027 2.94102C4.4525 2.93329 3.95191 3.12668 3.57382 3.4805C3.19573 3.83432 2.96961 4.321 2.94303 4.83815C2.91645 5.35529 3.09149 5.86259 3.43131 6.25331L3.52131 6.34931L5.40731 8.23531C5.78237 8.61025 6.29098 8.82088 6.82131 8.82088C7.35164 8.82088 7.86026 8.61025 8.23531 8.23531C8.29721 8.17337 8.3707 8.12423 8.45159 8.09069C8.53248 8.05715 8.61918 8.03987 8.70674 8.03984C8.79431 8.03981 8.88102 8.05703 8.96194 8.09051C9.04285 8.12399 9.11637 8.17308 9.17831 8.23497C9.24025 8.29687 9.28939 8.37036 9.32293 8.45125C9.35647 8.53214 9.37375 8.61884 9.37378 8.70641C9.37381 8.79397 9.3566 8.88069 9.32311 8.9616C9.28963 9.04251 9.24054 9.11603 9.17865 9.17797C8.57389 9.78269 7.75985 10.1318 6.90489 10.1532C6.04994 10.1745 5.21949 9.86642 4.58531 9.29264L4.46398 9.17797L2.57865 7.29197C1.95374 6.66688 1.60269 5.81919 1.60269 4.93531C1.60269 4.05143 1.95374 3.20307 2.57865 2.57797Z" fill="#798705"/>
</svg>
