<svg width="215" height="37" viewBox="0 0 215 37" fill="none" xmlns="http://www.w3.org/2000/svg">
<rect x="50.303" y="2.16522" width="1.37221" height="10.0629" transform="rotate(-25.4889 50.303 2.16522)" fill="#26AC22"/>
<rect x="53.8732" y="2.94937" width="1.32905" height="8.88202" transform="rotate(-3.38152 53.8732 2.94937)" fill="#26AC22"/>
<rect width="1.37221" height="9.7393" transform="matrix(-0.674349 0.738412 0.738412 0.674349 49.6421 4.59335)" fill="#26AC22"/>
<path d="M60.8485 12.5934C64.001 19.206 64.3084 24.3716 62.1421 25.4043C59.9758 26.4371 56.1562 22.9459 53.0037 16.3333C49.8513 9.7208 51.709 9.09674 53.8753 8.06399C56.0416 7.03124 57.6961 5.98088 60.8485 12.5934Z" fill="url(#paint0_radial_257_3091)"/>
<path d="M121.896 12.775C121.684 11.0465 120.494 8.36512 118.344 10.2986" stroke="#682D00" stroke-width="2" stroke-linecap="round"/>
<path d="M124.458 10.2487C123.787 11.2309 122.775 11.4719 121.563 12.254C121.693 11.0717 121.152 10.8715 121.211 9.04801C121.541 7.32452 122.723 7.4542 123.765 6.30146C124.617 8.15461 125.058 8.6253 124.458 10.2487Z" fill="#26AC22"/>
<circle cx="123.349" cy="18.895" r="7.21198" transform="rotate(-13.3508 123.349 18.895)" fill="url(#paint1_radial_257_3091)"/>
<path d="M96.4726 20.1808C95.6387 23.2455 92.055 24.859 87.9176 23.7333C83.7802 22.6076 80.6557 19.1689 81.4896 16.1042C82.3235 13.0394 85.9239 11.0526 90.4898 12.8909C96.2655 13.5684 97.3064 17.116 96.4726 20.1808Z" fill="url(#paint2_radial_257_3091)"/>
<path d="M90.9194 12.1138L91.1535 12.8637L92.2102 13.061L91.4332 13.4456L91.9082 14.1708L90.8972 13.8056L90.3155 14.3335L90.0814 13.5836L89.0247 13.3863L89.8017 13.0017L89.3267 12.2765L90.3377 12.6417L90.9194 12.1138Z" fill="#26AC22"/>
<path d="M6.04894 25.927C6.3483 25.0057 7.6517 25.0057 7.95106 25.927L8.34708 27.1459C8.48096 27.5579 8.86491 27.8369 9.29814 27.8369H10.5797C11.5484 27.8369 11.9512 29.0765 11.1675 29.6459L10.1307 30.3992C9.7802 30.6538 9.63354 31.1052 9.76741 31.5172L10.1634 32.7361C10.4628 33.6574 9.40831 34.4235 8.6246 33.8541L7.58778 33.1008C7.2373 32.8462 6.7627 32.8462 6.41221 33.1008L5.3754 33.8541C4.59169 34.4235 3.53721 33.6574 3.83656 32.7361L4.23259 31.5172C4.36646 31.1052 4.2198 30.6538 3.86932 30.3992L2.8325 29.6459C2.04879 29.0765 2.45156 27.8369 3.42029 27.8369H4.70186C5.13509 27.8369 5.51904 27.5579 5.65292 27.1459L6.04894 25.927Z" fill="#FFDD6E"/>
<path d="M197.049 16.9271C197.348 16.0057 198.652 16.0057 198.951 16.9271L199.123 17.4549C199.256 17.8669 199.64 18.1459 200.074 18.1459H200.629C201.597 18.1459 202 19.3855 201.216 19.9549L200.767 20.2812C200.417 20.5358 200.27 20.9872 200.404 21.3992L200.576 21.927C200.875 22.8484 199.821 23.6145 199.037 23.0451L198.588 22.7188C198.237 22.4642 197.763 22.4642 197.412 22.7188L196.963 23.0451C196.179 23.6145 195.125 22.8484 195.424 21.9271L195.596 21.3992C195.73 20.9872 195.583 20.5358 195.233 20.2812L194.784 19.9549C194 19.3855 194.403 18.1459 195.371 18.1459H195.926C196.36 18.1459 196.744 17.8669 196.877 17.4549L197.049 16.9271Z" fill="#D1E23D"/>
<path d="M160.347 5.93654C162.246 6.30856 163.484 8.14995 163.112 10.0488C163.105 10.0847 163.095 10.1199 163.087 10.1553C163.376 10.1381 163.673 10.1588 163.971 10.2172C165.87 10.5894 167.107 12.4296 166.735 14.3282C166.635 14.839 166.428 15.3012 166.143 15.6978C167.483 16.3976 168.263 17.9173 167.958 19.4767C167.643 21.0844 166.275 22.2175 164.71 22.3016C164.333 23.5815 163.269 24.5057 162.009 24.7468C161.998 24.83 161.984 24.9138 161.967 24.9973C161.455 27.6079 158.828 29.2903 156.099 28.7555C153.483 28.2429 151.724 25.8801 152.032 23.3861C150.617 22.717 149.78 21.1535 150.094 19.5474C150.13 19.3674 150.177 19.1925 150.237 19.0251C148.807 18.363 147.957 16.7903 148.273 15.1743C148.568 13.6702 149.784 12.5813 151.221 12.3784C151.18 12.0269 151.192 11.663 151.264 11.2971C151.636 9.39831 153.477 8.16116 155.376 8.53317C155.673 8.59146 155.955 8.68435 156.216 8.8093C156.222 8.77343 156.228 8.7375 156.235 8.70159C156.608 6.80282 158.448 5.56461 160.347 5.93654Z" fill="url(#paint3_linear_257_3091)"/>
<path d="M158.794 15.0037L156.268 27.8965" stroke="#3DC539" stroke-linecap="round"/>
<path d="M154.842 14.6757L157.615 21.0204" stroke="#3DC539" stroke-linecap="round"/>
<path d="M154.461 21.7413L157.049 24.4795" stroke="#3DC539" stroke-linecap="round"/>
<path d="M162.792 16.2333L157.83 21.0624" stroke="#3DC539" stroke-linecap="round"/>
<path d="M160.478 22.9201L157.049 24.4795" stroke="#3DC539" stroke-linecap="round"/>
<path d="M19.0489 17.9271C19.3483 17.0057 20.6517 17.0057 20.9511 17.9271L21.1226 18.4549C21.2564 18.8669 21.6404 19.1459 22.0736 19.1459H22.6287C23.5974 19.1459 24.0002 20.3855 23.2164 20.9549L22.7674 21.2812C22.4169 21.5358 22.2703 21.9872 22.4041 22.3992L22.5757 22.927C22.875 23.8484 21.8205 24.6145 21.0368 24.0451L20.5878 23.7188C20.2373 23.4642 19.7627 23.4642 19.4122 23.7188L18.9632 24.0451C18.1795 24.6145 17.125 23.8484 17.4243 22.9271L17.5959 22.3992C17.7297 21.9872 17.5831 21.5358 17.2326 21.2812L16.7836 20.9549C15.9998 20.3855 16.4026 19.1459 17.3713 19.1459H17.9264C18.3596 19.1459 18.7436 18.8669 18.8774 18.4549L19.0489 17.9271Z" fill="#D1E23D"/>
<path d="M207.549 23.9271C207.848 23.0057 209.152 23.0057 209.451 23.9271L209.735 24.8004C209.869 25.2124 210.253 25.4914 210.686 25.4914H211.604C212.573 25.4914 212.976 26.731 212.192 27.3004L211.449 27.8402C211.099 28.0948 210.952 28.5462 211.086 28.9582L211.37 29.8316C211.669 30.7529 210.614 31.519 209.831 30.9496L209.088 30.4098C208.737 30.1552 208.263 30.1552 207.912 30.4098L207.169 30.9496C206.386 31.519 205.331 30.7529 205.63 29.8316L205.914 28.9582C206.048 28.5462 205.901 28.0948 205.551 27.8402L204.808 27.3004C204.024 26.731 204.427 25.4914 205.396 25.4914H206.314C206.747 25.4914 207.131 25.2124 207.265 24.8004L207.549 23.9271Z" fill="#FFDD6E"/>
<path d="M69.2735 10.2361C69.5021 9.53225 70.4979 9.53225 70.7265 10.2361C70.8288 10.5508 71.1221 10.7639 71.4531 10.7639C72.1931 10.7639 72.5008 11.7109 71.9021 12.1459C71.6344 12.3404 71.5223 12.6852 71.6246 13C71.8533 13.7038 71.0477 14.2891 70.449 13.8541C70.1813 13.6596 69.8187 13.6596 69.551 13.8541C68.9523 14.2891 68.1467 13.7038 68.3754 13C68.4777 12.6852 68.3656 12.3404 68.0979 12.1459C67.4992 11.7109 67.8069 10.7639 68.5469 10.7639C68.8779 10.7639 69.1712 10.5508 69.2735 10.2361Z" fill="#FF955C"/>
<path d="M107.273 24.2361C107.502 23.5322 108.498 23.5322 108.727 24.2361C108.829 24.5508 109.122 24.7639 109.453 24.7639C110.193 24.7639 110.501 25.7109 109.902 26.1459C109.634 26.3404 109.522 26.6852 109.625 27C109.853 27.7038 109.048 28.2891 108.449 27.8541C108.181 27.6596 107.819 27.6596 107.551 27.8541C106.952 28.2891 106.147 27.7038 106.375 27C106.478 26.6852 106.366 26.3404 106.098 26.1459C105.499 25.7109 105.807 24.7639 106.547 24.7639C106.878 24.7639 107.171 24.5508 107.273 24.2361Z" fill="#FF4545"/>
<path d="M137.273 12.2361C137.502 11.5322 138.498 11.5322 138.727 12.2361C138.829 12.5508 139.122 12.7639 139.453 12.7639C140.193 12.7639 140.501 13.7109 139.902 14.1459C139.634 14.3404 139.522 14.6852 139.625 15C139.853 15.7038 139.048 16.2891 138.449 15.8541C138.181 15.6596 137.819 15.6596 137.551 15.8541C136.952 16.2891 136.147 15.7038 136.375 15C136.478 14.6852 136.366 14.3404 136.098 14.1459C135.499 13.7109 135.807 12.7639 136.547 12.7639C136.878 12.7639 137.171 12.5508 137.273 12.2361Z" fill="#F7F288"/>
<path d="M172.273 24.2361C172.502 23.5322 173.498 23.5322 173.727 24.2361C173.829 24.5508 174.122 24.7639 174.453 24.7639C175.193 24.7639 175.501 25.7109 174.902 26.1459C174.634 26.3404 174.522 26.6852 174.625 27C174.853 27.7038 174.048 28.2891 173.449 27.8541C173.181 27.6596 172.819 27.6596 172.551 27.8541C171.952 28.2891 171.147 27.7038 171.375 27C171.478 26.6852 171.366 26.3404 171.098 26.1459C170.499 25.7109 170.807 24.7639 171.547 24.7639C171.878 24.7639 172.171 24.5508 172.273 24.2361Z" fill="#21C61C"/>
<defs>
<radialGradient id="paint0_radial_257_3091" cx="0" cy="0" r="1" gradientUnits="userSpaceOnUse" gradientTransform="translate(57.6028 11.0998) rotate(79.6969) scale(16.5884 10.7099)">
<stop stop-color="#FF9A64"/>
<stop offset="1" stop-color="#FF610D"/>
</radialGradient>
<radialGradient id="paint1_radial_257_3091" cx="0" cy="0" r="1" gradientUnits="userSpaceOnUse" gradientTransform="translate(122.483 16.2987) rotate(84.9575) scale(9.8464)">
<stop stop-color="#FAFF9F"/>
<stop offset="1" stop-color="#EABF2F"/>
</radialGradient>
<radialGradient id="paint2_radial_257_3091" cx="0" cy="0" r="1" gradientUnits="userSpaceOnUse" gradientTransform="translate(89.4076 14.3845) rotate(101.724) scale(9.42961 12.9783)">
<stop stop-color="#FF7474"/>
<stop offset="1" stop-color="#FF2626"/>
</radialGradient>
<linearGradient id="paint3_linear_257_3091" x1="159.884" y1="8.30019" x2="156.011" y2="28.0688" gradientUnits="userSpaceOnUse">
<stop offset="0.2" stop-color="#21C61C"/>
<stop offset="1" stop-color="white"/>
</linearGradient>
</defs>
</svg>
